<svg xmlns="http://www.w3.org/2000/svg" version="1.1" xmlns:xlink="http://www.w3.org/1999/xlink" xmlns:svgjs="http://svgjs.dev/svgjs" width="1440" height="560" preserveAspectRatio="none" viewBox="0 0 1440 560"><g mask="url(&quot;#SvgjsMask1004&quot;)" fill="none"><rect width="1440" height="560" x="0" y="0" fill="rgba(196, 196, 211, 1)"></rect><path d="M0,504.895C92.955,494.641,133.21,380.254,212.155,330.119C291.745,279.574,418.612,294.665,462.462,211.199C505.966,128.391,435.758,31.69,417.092,-59.969C399.696,-145.392,401.182,-234.065,356.538,-308.942C306.379,-393.069,242.84,-479.451,149.426,-508.897C55.58,-538.479,-45.932,-503.164,-136.332,-464.305C-219.403,-428.596,-282.272,-364.204,-343.009,-297.219C-405.067,-228.778,-463.789,-158.52,-493.053,-70.89C-526.521,29.326,-572.815,145.768,-521.856,238.324C-470.718,331.206,-338.954,332.265,-244.531,380.498C-161.406,422.959,-92.779,515.13,0,504.895" fill="#9595b0"></path><path d="M1440 1016.027C1526.577 1010.6 1613.745 990.244 1682.547 937.4110000000001 1748.564 886.717 1772.799 803.281 1812.394 730.067 1855.209 650.899 1918.934 580.209 1924.316 490.366 1930.245 391.387 1901.786 290.578 1843.526 210.34300000000002 1782.6190000000001 126.46100000000001 1696.348 52.01999999999998 1594.0149999999999 35.472999999999956 1494.731 19.418999999999983 1408.138 94.54899999999998 1312.1 124.41199999999998 1218.0149999999999 153.668 1102.9479999999999 137.69799999999998 1035.2 209.23899999999998 967.095 281.157 958.831 392.721 964.364 491.61400000000003 969.304 579.913 1028.431 650.738 1064.421 731.521 1100.826 813.235 1105.783 915.079 1177.091 969.095 1249.519 1023.96 1349.316 1021.711 1440 1016.027" fill="#f3f3f6"></path></g><defs><mask id="SvgjsMask1004"><rect width="1440" height="560" fill="#ffffff"></rect></mask></defs></svg>